HIERARCHY
ROOT pelvis
{
	OFFSET 0.000000 0.000000 0.706328
	CHANNELS 6 Xposition Yposition Zposition Xrotation Yrotation Zrotation
	JOINT spine
	{
		OFFSET 0.000000 0.000000 0.000000
		CHANNELS 6 Xposition Yposition Zposition Xrotation Yrotation Zrotation
		JOINT spine.001
		{
			OFFSET 0.000000 -0.013396 0.255602
			CHANNELS 3 Xrotation Yrotation Zrotation
			JOINT neck
			{
				OFFSET 0.000000 0.031193 0.254045
				CHANNELS 6 Xposition Yposition Zposition Xrotation Yrotation Zrotation
				JOINT face
				{
					OFFSET 0.000000 0.003460 0.198226
					CHANNELS 6 Xposition Yposition Zposition Xrotation Yrotation Zrotation
					End Site
					{
						OFFSET -0.000000 -0.031132 -0.007375
					}
				}
			}
			JOINT shoulder.L
			{
				OFFSET 0.000000 0.031193 0.254045
				CHANNELS 6 Xposition Yposition Zposition Yrotation Xrotation Zrotation
				JOINT upper_arm.L
				{
					OFFSET 0.162157 0.000000 0.000000
					CHANNELS 6 Xposition Yposition Zposition Xrotation Yrotation Zrotation
					JOINT forearm.L
					{
						OFFSET 0.251056 0.000111 0.000918
						CHANNELS 6 Xposition Yposition Zposition Xrotation Yrotation Zrotation
						End Site
						{
							OFFSET 0.224102 -0.003810 -0.001264
						}
					}
				}
			}
			JOINT shoulder.R
			{
				OFFSET 0.000000 0.031193 0.254045
				CHANNELS 6 Xposition Yposition Zposition Yrotation Xrotation Zrotation
				JOINT upper_arm.R
				{
					OFFSET -0.162157 0.000000 0.000000
					CHANNELS 6 Xposition Yposition Zposition Xrotation Yrotation Zrotation
					JOINT forearm.R
					{
						OFFSET -0.248610 0.000111 0.000918
						CHANNELS 6 Xposition Yposition Zposition Xrotation Yrotation Zrotation
						End Site
						{
							OFFSET -0.225983 -0.003843 -0.001264
						}
					}
				}
			}
		}
	}
	JOINT pelvis.L
	{
		OFFSET 0.000000 0.000000 0.000000
		CHANNELS 6 Xposition Yposition Zposition Yrotation Xrotation Zrotation
		End Site
		{
			OFFSET 0.102836 0.000000 0.000000
		}
	}
	JOINT pelvis.R
	{
		OFFSET 0.000000 0.000000 0.000000
		CHANNELS 6 Xposition Yposition Zposition Yrotation Xrotation Zrotation
		End Site
		{
			OFFSET -0.102836 0.000000 0.000000
		}
	}
	JOINT thigh.L
	{
		OFFSET 0.102836 0.000000 0.000000
		CHANNELS 6 Xposition Yposition Zposition Xrotation Yrotation Zrotation
		JOINT shin.L
		{
			OFFSET 0.017173 0.000000 -0.327671
			CHANNELS 6 Xposition Yposition Zposition Xrotation Yrotation Zrotation
			JOINT foot.L
			{
				OFFSET 0.015946 0.000000 -0.304272
				CHANNELS 3 Xrotation Yrotation Zrotation
				End Site
				{
					OFFSET 0.014600 -0.148863 -0.062510
				}
			}
			JOINT heel.02.L
			{
				OFFSET 0.015946 0.000000 -0.304272
				CHANNELS 3 Xrotation Yrotation Zrotation
				End Site
				{
					OFFSET -0.076478 0.033009 -0.077627
				}
			}
		}
	}
	JOINT thigh.R
	{
		OFFSET -0.102836 0.000000 0.000000
		CHANNELS 6 Xposition Yposition Zposition Xrotation Yrotation Zrotation
		JOINT shin.R
		{
			OFFSET -0.017552 0.000000 -0.334915
			CHANNELS 6 Xposition Yposition Zposition Xrotation Yrotation Zrotation
			JOINT foot.R
			{
				OFFSET -0.016394 0.000000 -0.312820
				CHANNELS 3 Xrotation Yrotation Zrotation
				End Site
				{
					OFFSET -0.015645 -0.159522 -0.066986
				}
			}
			JOINT heel.02.R
			{
				OFFSET -0.016394 0.000000 -0.312820
				CHANNELS 3 Xrotation Yrotation Zrotation
				End Site
				{
					OFFSET 0.070609 0.033009 -0.061483
				}
			}
		}
	}
}
MOTION
Frames: 4
Frame Time: 0.041667
-0.011916 -0.010656 0.696056 -0.000000 0.000000 0.105884 0.000000 -0.000000 -0.000000 -7.809677 1.679410 0.203389 9.987765 0.413243 3.367502 0.000000 0.031193 0.254045 7.640730 -4.339138 -2.487309 -0.000000 0.003460 0.198226 1.864543 -0.000000 -0.000000 0.000000 0.031193 0.254045 -0.776381 0.000645 0.095190 0.162157 0.000000 -0.000000 -0.227646 76.308854 0.238960 0.251056 0.000111 0.000918 2.896820 14.196089 -21.961399 0.000000 0.031193 0.254045 -0.725959 0.000563 0.089068 -0.162157 0.000000 0.000000 26.903237 -75.268439 34.456535 -0.248610 0.000111 0.000918 2.594695 -13.638591 20.418261 0.000000 -0.000000 -0.000000 0.827934 -0.000000 0.000010 0.000000 -0.000000 -0.000000 0.827934 -0.000000 0.000000 0.102825 -0.000000 -0.001486 -1.400699 0.776674 -0.063940 0.017173 0.000000 -0.327671 11.105571 5.129166 0.085061 -8.802123 -6.296519 10.392320 -1.247010 -27.494868 -14.501298 -0.102825 0.000000 0.001486 0.736522 -3.090067 -0.018761 -0.017552 0.000000 -0.334915 11.138392 -2.698092 -0.322847 -12.109774 10.728289 -16.858556 -7.098727 26.260860 11.192106 
-0.015415 -0.010727 0.695612 -0.000000 0.000000 0.152376 0.000000 0.000000 -0.000000 -7.766789 1.651858 0.199425 9.987554 0.417403 3.401521 0.000000 0.031193 0.254045 7.455259 -4.275505 -2.723677 0.000000 0.003460 0.198226 1.787735 -0.000000 -0.000000 0.000000 0.031193 0.254045 -0.983525 0.001037 0.120695 0.162157 -0.000000 -0.000000 -1.207444 77.199162 1.459753 0.251056 0.000111 0.000918 2.877168 13.865197 -22.386302 0.000000 0.031193 0.254045 -0.933022 0.000934 0.114523 -0.162157 0.000000 -0.000000 26.543896 -74.984221 34.170951 -0.248610 0.000111 0.000918 2.495619 -13.847992 19.243851 0.000000 -0.000000 -0.000000 0.646497 -0.000000 -0.000024 0.000000 -0.000000 -0.000000 0.646497 -0.000000 0.000000 0.102829 0.000000 -0.001160 -1.503728 0.404135 -0.073521 0.017173 0.000000 -0.327671 10.997260 5.276518 0.069983 -8.076177 -6.887999 11.839832 -1.395154 -26.360157 -13.499703 -0.102829 0.000000 0.001160 0.892733 -3.294847 -0.021142 -0.017552 -0.000000 -0.334915 10.810231 -2.688765 -0.314160 -12.144787 10.715064 -16.817142 -7.094742 26.176792 11.107726 
-0.017590 -0.011694 0.695270 -0.000000 0.000000 -0.008990 0.000000 0.000000 -0.000000 -7.880676 1.612556 0.196305 9.985774 0.444497 3.622345 0.000000 0.031193 0.254045 7.323126 -4.313883 -3.280151 -0.000000 0.003460 0.198226 1.865775 -0.000000 0.000001 0.000000 0.031193 0.254045 -1.130458 0.001370 0.138766 0.162157 0.000000 -0.000000 -0.420763 77.790097 0.470435 0.251056 0.000111 0.000918 2.752098 13.425912 -22.139505 0.000000 0.031193 0.254045 -1.079997 0.001250 0.132578 -0.162157 0.000000 -0.000000 26.151138 -74.906227 33.722085 -0.248610 0.000111 0.000918 2.315922 -13.551306 18.189692 0.000000 -0.000000 0.000000 0.462974 -0.000000 -0.000074 0.000000 -0.000000 0.000000 0.462974 -0.000000 0.000000 0.102832 0.000000 -0.000831 -1.398703 0.176712 -0.071155 0.017173 0.000000 -0.327671 10.722150 5.329157 0.063261 -7.606532 -7.135236 12.534116 -1.367631 -25.838440 -13.133860 -0.102832 0.000000 0.000831 1.083504 -3.342911 -0.025206 -0.017552 0.000000 -0.334915 10.493541 -2.720417 -0.301998 -12.317895 10.583703 -16.498908 -7.020749 26.151437 11.171648 
-0.018603 -0.013291 0.695011 -0.000000 0.000000 -0.287729 0.000000 0.000000 -0.000000 -8.093667 1.547878 0.191351 9.982838 0.490577 3.998750 -0.000000 0.031193 0.254045 7.292066 -4.504205 -3.964988 0.000000 0.003460 0.198226 1.888573 0.000001 -0.000000 -0.000000 0.031193 0.254045 -1.227731 0.001615 0.150717 0.162157 -0.000000 -0.000000 2.123252 77.943680 -2.670703 0.251056 0.000111 0.000918 2.612035 13.252832 -21.250342 -0.000000 0.031193 0.254045 -1.177269 0.001484 0.144536 -0.162157 -0.000000 -0.000000 25.674000 -74.989965 33.074576 -0.248610 0.000111 0.000918 2.148459 -13.059218 17.487287 0.000000 -0.000000 -0.000000 0.297390 -0.000000 0.000080 0.000000 -0.000000 -0.000000 0.297356 -0.000000 0.000000 0.102834 0.000000 -0.000534 -1.155663 0.076333 -0.059800 0.017173 0.000000 -0.327671 10.418689 5.330312 0.061356 -7.426600 -7.207648 12.759925 -1.267921 -25.810744 -13.203690 -0.102834 0.000000 0.000534 1.287760 -3.297244 -0.030471 -0.017552 0.000000 -0.334915 10.226525 -2.761951 -0.290553 -12.707451 10.415260 -16.007868 -7.032096 26.234275 11.245585 
